<svg viewBox="0 0 40 40" xmlns="http://www.w3.org/2000/svg">
<g clip-path="url(#clip0_58_141)">
<path d="M6.50001 20C6.50001 17.15 8.81668 14.8333 11.6667 14.8333H18.3333V11.6667H11.6667C7.06668 11.6667 3.33334 15.4 3.33334 20C3.33334 24.6 7.06668 28.3333 11.6667 28.3333H18.3333V25.1667H11.6667C8.81668 25.1667 6.50001 22.85 6.50001 20ZM13.3333 21.6667H26.6667V18.3333H13.3333V21.6667ZM28.3333 11.6667H21.6667V14.8333H28.3333C31.1833 14.8333 33.5 17.15 33.5 20C33.5 22.85 31.1833 25.1667 28.3333 25.1667H21.6667V28.3333H28.3333C32.9333 28.3333 36.6667 24.6 36.6667 20C36.6667 15.4 32.9333 11.6667 28.3333 11.6667Z" />
</g>
<defs>
<clipPath id="clip0_58_141">
<rect width="40" height="40" fill="currentColor"/>
</clipPath>
</defs>
</svg>
